<svg width="24" height="25" viewBox="0 0 24 25" fill="none" xmlns="http://www.w3.org/2000/svg">
<g clip-path="url(#clip0_39_102)">
<path fill-rule="evenodd" clip-rule="evenodd" d="M1 12.2757C1 9.04077 2.2116 5.93831 4.36827 3.65085C6.52494 1.36339 9.45001 0.0783081 12.5 0.0783081C15.55 0.0783081 18.4751 1.36339 20.6317 3.65085C22.7884 5.93831 24 9.04077 24 12.2757C24 15.5107 22.7884 18.6131 20.6317 20.9006C18.4751 23.1881 15.55 24.4731 12.5 24.4731C9.45001 24.4731 6.52494 23.1881 4.36827 20.9006C2.2116 18.6131 1 15.5107 1 12.2757ZM11.7812 1.72039C10.8181 2.03142 9.86219 2.97062 9.06869 4.54866C8.80725 5.07329 8.5824 5.61754 8.39594 6.17702H11.7812V1.72039ZM6.87938 6.17702H4.24156C5.34413 4.49929 6.8765 3.19143 8.65756 2.40801C8.33497 2.85625 8.04793 3.33205 7.79938 3.83054C7.44431 4.53799 7.13525 5.32472 6.87938 6.17702ZM6.04275 11.5134H2.46337C2.5525 10.1564 2.88169 8.87112 3.40637 7.70169H6.49125C6.2313 8.95488 6.08116 10.2309 6.04275 11.5134ZM7.96756 7.70169H11.7812V11.5134H7.48313C7.52254 10.2288 7.68436 8.95173 7.96613 7.70169H7.96756ZM13.2188 7.70169V11.5134H17.5169C17.477 10.2287 17.3147 8.95167 17.0324 7.70169H13.2188ZM7.48313 13.0381H11.7812V16.8498H7.96756C7.68483 15.5998 7.52204 14.3228 7.48169 13.0381H7.48313ZM13.2188 13.0381V16.8498H17.0324C17.3013 15.6834 17.4723 14.3981 17.5183 13.0381H13.2188ZM8.39594 18.3744H11.7812V22.8311C10.8181 22.52 9.86219 21.5808 9.06869 20.0028C8.80725 19.4781 8.5824 18.9339 8.39594 18.3744ZM8.65756 22.1434C8.33495 21.6952 8.04791 21.2194 7.79938 20.7209C7.42689 19.9696 7.11897 19.1843 6.87938 18.3744H4.24156C5.34407 20.0522 6.87646 21.3601 8.65756 22.1434ZM6.49125 16.8498H3.40637C2.87036 15.6528 2.55051 14.3599 2.46337 13.0381H6.04275C6.08588 14.3752 6.24113 15.6575 6.49125 16.8498ZM16.3424 22.1434C18.1235 21.3601 19.6559 20.0522 20.7584 18.3744H18.1206C17.881 19.1843 17.5731 19.9696 17.2006 20.7209C16.9521 21.2194 16.6651 21.6952 16.3424 22.1434ZM13.2188 18.3744H16.6041C16.4176 18.9339 16.1928 19.4782 15.9313 20.0028C15.1378 21.5808 14.1804 22.5185 13.2188 22.8311V18.3744ZM18.5088 16.8498H21.5936C22.1183 15.6803 22.4475 14.395 22.5366 13.0381H18.9572C18.9189 14.3206 18.7687 15.5966 18.5088 16.8498ZM22.5366 11.5134H18.9572C18.9189 10.2309 18.7687 8.95487 18.5088 7.70169H21.5936C22.1183 8.87112 22.4475 10.1564 22.5366 11.5134ZM17.2006 3.83054C17.5557 4.53799 17.8647 5.32472 18.1206 6.17702H20.7584C19.6559 4.49924 18.1235 3.19136 16.3424 2.40801C16.6558 2.84102 16.9433 3.31977 17.2006 3.83054ZM16.6041 6.17702H13.2188V1.72039C14.1819 2.03142 15.1378 2.97062 15.9313 4.54866C16.18 5.04266 16.4057 5.58849 16.6041 6.17702Z" fill="black"/>
</g>
<defs>
<clipPath id="clip0_39_102">
<rect width="24" height="24.3948" fill="white" transform="translate(0 0.0783081)"/>
</clipPath>
</defs>
</svg>
